<svg width="20" height="21" viewBox="0 0 20 21" fill="none" xmlns="http://www.w3.org/2000/svg">
<path fill-rule="evenodd" clip-rule="evenodd" d="M19.9355 5.99336C19.9243 5.1536 19.7669 4.32219 19.4702 3.53631C19.2129 2.87343 18.82 2.27142 18.3164 1.76874C17.8129 1.26606 17.2099 0.873757 16.5459 0.616909C15.7689 0.325697 14.9479 0.168233 14.1181 0.151223C13.0497 0.103546 12.711 0.0902405 9.99884 0.0902405C7.28671 0.0902405 6.93908 0.0902405 5.87844 0.151223C5.04899 0.168358 4.22845 0.32582 3.45174 0.616909C2.78766 0.873578 2.18455 1.26581 1.68101 1.76852C1.17747 2.27122 0.784579 2.87333 0.527483 3.53631C0.235202 4.31149 0.077819 5.13085 0.0621336 5.95899C0.014377 7.02674 -6.10352e-05 7.36491 -6.10352e-05 10.0725C-6.10352e-05 12.7802 -6.10352e-05 13.1261 0.0621336 14.1861C0.0787929 15.0155 0.23539 15.8337 0.527483 16.611C0.78501 17.2738 1.17819 17.8756 1.6819 18.3781C2.18561 18.8806 2.78877 19.2727 3.45285 19.5293C4.22743 19.8322 5.04811 20.0009 5.87955 20.0282C6.90347 20.0739 7.2576 20.089 9.66571 20.0902V12.1706H7.55164V9.28008H9.66571V6.81116C9.66571 4.87106 10.9145 3.08942 13.792 3.08942C14.957 3.08942 15.8185 3.20157 15.8185 3.20157L15.7506 5.90087C15.7506 5.90087 14.8721 5.89228 13.9133 5.89228C12.8756 5.89228 12.7094 6.37246 12.7094 7.16944V9.28008H15.8331L15.6972 12.1706H12.7094V20.0821C13.2507 20.0742 13.5996 20.0587 14.1203 20.0282C14.9501 20.0119 15.7711 19.8548 16.5482 19.5637C17.212 19.3065 17.8148 18.9141 18.3183 18.4115C18.8218 17.9088 19.2148 17.307 19.4724 16.6443C19.7645 15.8681 19.9211 15.0498 19.9378 14.2194C19.9855 13.1527 20 12.8145 20 10.1058L19.9999 10.0685V10.0684C19.9977 7.39498 19.9974 7.04954 19.9355 5.99336Z" fill="white"/>
</svg>
