<svg width="22" height="18" viewBox="0 0 22 18" fill="none" xmlns="http://www.w3.org/2000/svg">
<path d="M19.5586 15.501H17.4336V6.2041L11.0586 10.1885L4.68359 6.2041V15.501H2.55859V2.75098H3.83359L11.0586 7.2666L18.2836 2.75098H19.5586V15.501ZM19.5586 0.625977H2.55859C1.37922 0.625977 0.433594 1.5716 0.433594 2.75098V15.501C0.433594 16.0646 0.657477 16.6051 1.05599 17.0036C1.45451 17.4021 1.99501 17.626 2.55859 17.626H19.5586C20.1222 17.626 20.6627 17.4021 21.0612 17.0036C21.4597 16.6051 21.6836 16.0646 21.6836 15.501V2.75098C21.6836 2.18739 21.4597 1.64689 21.0612 1.24837C20.6627 0.84986 20.1222 0.625977 19.5586 0.625977Z" fill="#FFCF53"/>
</svg>
