<svg width="22" height="21" viewBox="0 0 22 21" fill="none" xmlns="http://www.w3.org/2000/svg">
<path d="M20.9225 8.08185C21.0676 8.1907 21.1402 8.35396 21.1402 8.57165V19.6193C21.1402 19.8007 21.0858 19.9458 20.9769 20.0546C20.8681 20.1635 20.7139 20.227 20.5143 20.2451H14.2286C14.0472 20.2451 13.893 20.1816 13.766 20.0546C13.6391 19.9277 13.5756 19.7825 13.5756 19.6193V12.6805C13.5756 12.4991 13.5211 12.3449 13.4123 12.2179C13.3035 12.0909 13.1493 12.0365 12.9497 12.0546H9.16741C8.986 12.0546 8.84087 12.1091 8.73203 12.2179C8.62319 12.3267 8.55969 12.4809 8.54155 12.6805V19.6193C8.54155 19.8007 8.48713 19.9458 8.37829 20.0546C8.26945 20.1635 8.11525 20.227 7.9157 20.2451H1.60278C1.42137 20.2451 1.27625 20.1816 1.1674 20.0546C1.05856 19.9277 0.995069 19.7825 0.976929 19.6193V8.57165C0.976929 8.35396 1.05856 8.1907 1.22183 8.08185L10.664 0.408382C10.9361 0.190695 11.1992 0.190695 11.4531 0.408382L20.9225 8.08185Z" fill="#FFCF53"/>
</svg>
