<svg width="20" height="21" viewBox="0 0 20 21" fill="none" xmlns="http://www.w3.org/2000/svg">
<g clip-path="url(#clip0)">
<path d="M3.08594 17.6312H6.09375V8.59478H3.08594V17.6312ZM6.28906 5.80832C6.28038 5.35693 6.12413 4.98367 5.82031 4.68853C5.51649 4.39339 5.11285 4.24582 4.60938 4.24582C4.1059 4.24582 3.69575 4.39339 3.37891 4.68853C3.06207 4.98367 2.90365 5.35693 2.90365 5.80832C2.90365 6.25103 3.05773 6.62212 3.36589 6.9216C3.67405 7.22108 4.07552 7.37082 4.57031 7.37082H4.58333C5.09549 7.37082 5.50781 7.22108 5.82031 6.9216C6.13281 6.62212 6.28906 6.25103 6.28906 5.80832ZM13.9062 17.6312H16.9141V12.4489C16.9141 11.1121 16.5972 10.1009 15.9635 9.41509C15.3299 8.72933 14.4922 8.38644 13.4505 8.38644C12.27 8.38644 11.3628 8.89426 10.7292 9.90988H10.7552V8.59478H7.7474C7.77344 9.16769 7.77344 12.1798 7.7474 17.6312H10.7552V12.5792C10.7552 12.2493 10.7856 12.0062 10.8464 11.85C10.9766 11.5462 11.1719 11.2879 11.4323 11.0752C11.6927 10.8626 12.0139 10.7562 12.3958 10.7562C13.4028 10.7562 13.9062 11.4377 13.9062 12.8005V17.6312ZM20 4.63644V17.1364C20 18.1694 19.6332 19.0527 18.8997 19.7862C18.1662 20.5197 17.283 20.8864 16.25 20.8864H3.75C2.71701 20.8864 1.83377 20.5197 1.10026 19.7862C0.366753 19.0527 0 18.1694 0 17.1364V4.63644C0 3.60346 0.366753 2.72021 1.10026 1.9867C1.83377 1.2532 2.71701 0.886444 3.75 0.886444H16.25C17.283 0.886444 18.1662 1.2532 18.8997 1.9867C19.6332 2.72021 20 3.60346 20 4.63644Z" fill="white"/>
</g>
<defs>
<clipPath id="clip0">
</clipPath>
</defs>
</svg>
