<svg width="20" height="18" viewBox="0 0 20 18" fill="none" xmlns="http://www.w3.org/2000/svg">
<path d="M19.9999 2.79762C19.251 3.12936 18.4567 3.34701 17.6433 3.44331C18.5001 2.93071 19.1412 2.12409 19.4472 1.17379C18.6419 1.65183 17.7607 1.98846 16.8418 2.16907C16.4579 1.75959 15.994 1.43331 15.4788 1.21046C14.9636 0.987607 14.4082 0.872932 13.8469 0.873538C11.581 0.873538 9.74366 2.71035 9.74366 4.97675C9.74366 5.29804 9.78002 5.61154 9.85015 5.91204C6.43989 5.74088 3.41663 4.10718 1.39281 1.62442C1.02791 2.25064 0.836164 2.96267 0.837248 3.68745C0.83671 4.36302 1.00305 5.02825 1.3215 5.62405C1.63995 6.21984 2.10064 6.72775 2.66263 7.10265C2.01115 7.08195 1.37403 6.906 0.804262 6.58942C0.803743 6.60656 0.803743 6.62344 0.803743 6.64111C0.803743 8.62856 2.21797 10.2869 4.09478 10.6643C3.49046 10.8279 2.85683 10.8519 2.24187 10.7345C2.76393 12.3643 4.27919 13.551 6.07471 13.5842C4.62124 14.7248 2.8264 15.3435 0.978801 15.3408C0.647645 15.3408 0.321164 15.3215 -0.00012207 15.2834C1.876 16.4888 4.0595 17.1287 6.2895 17.1264C13.8367 17.1264 17.9639 10.8744 17.9639 5.45284C17.9639 5.27518 17.9597 5.09779 17.9519 4.92143C18.7556 4.34117 19.4492 3.62192 19.9999 2.79762Z" fill="white"/>
</svg>
