<svg width="31" height="32" viewBox="0 0 31 32" fill="none" xmlns="http://www.w3.org/2000/svg">
<path fill-rule="evenodd" clip-rule="evenodd" d="M3.24385 5.32901C3.60118 5.01434 3.77985 4.57701 3.77985 4.01701V1.77701C3.77985 1.21701 3.60118 0.78234 3.24385 0.473006C2.88651 0.15834 2.45451 0.00100708 1.94785 0.00100708C1.44118 0.00100708 1.00918 0.15834 0.651846 0.473006C0.294513 0.78234 0.115845 1.21701 0.115845 1.77701V4.01701C0.115845 4.57701 0.294513 5.01434 0.651846 5.32901C1.00918 5.63834 1.44118 5.79301 1.94785 5.79301C2.45451 5.79301 2.88651 5.63834 3.24385 5.32901ZM2.46785 1.77701V4.02501C2.46785 4.21701 2.41718 4.36367 2.31585 4.46501C2.21985 4.56101 2.09718 4.60901 1.94785 4.60901C1.79851 4.60901 1.67318 4.56101 1.57185 4.46501C1.47585 4.36367 1.42785 4.21701 1.42785 4.02501V1.77701C1.42785 1.58501 1.47585 1.43834 1.57185 1.33701C1.67318 1.23567 1.79851 1.18501 1.94785 1.18501C2.09718 1.18501 2.21985 1.23567 2.31585 1.33701C2.41718 1.43834 2.46785 1.58501 2.46785 1.77701ZM6.90516 5.74501H8.21716V0.0490065H6.90516L5.68916 1.10501V2.50501L6.90516 1.44901V5.74501ZM30.2761 11.2701H0.276093V9.27012H30.2761V11.2701ZM0.276093 21.5826H30.2761V19.5826H0.276093V21.5826ZM0.276093 31.8951H30.2761V29.8951H0.276093V31.8951Z" fill="white"/>
</svg>
