<svg width="32" height="32" viewBox="0 0 32 32" fill="none" xmlns="http://www.w3.org/2000/svg">
<path d="M8.53 0.895111H1.45592C1.23215 0.895111 1.04907 1.07782 1.04907 1.30113V8.2289C1.04907 8.45221 1.23215 8.63492 1.45592 8.63492C1.67969 8.63492 1.86277 8.45221 1.86277 8.2289V1.70208H8.53509C8.75885 1.70208 8.94194 1.51937 8.94194 1.29606C8.93176 1.07782 8.75377 0.895111 8.53 0.895111Z" stroke="white"/>
<path d="M30.6321 0.96109H23.6953C23.4715 0.96109 23.2885 1.1438 23.2885 1.36711C23.2885 1.59043 23.4715 1.77314 23.6953 1.77314H30.2303V8.43191C30.2303 8.65522 30.4134 8.83793 30.6372 8.83793C30.8609 8.83793 31.044 8.65522 31.044 8.43191V1.36711C31.0389 1.1438 30.8558 0.96109 30.6321 0.96109Z" stroke="white"/>
<path d="M30.6321 23.1553C30.4083 23.1553 30.2252 23.338 30.2252 23.5613V30.0831H23.558C23.3342 30.0831 23.1511 30.2658 23.1511 30.4891C23.1511 30.7124 23.3342 30.8951 23.558 30.8951H30.6321C30.8558 30.8951 31.0389 30.7124 31.0389 30.4891V23.5613C31.0389 23.338 30.8558 23.1553 30.6321 23.1553Z" stroke="white"/>
<path d="M8.39265 30.0171H1.85764V23.3583C1.85764 23.135 1.67456 22.9574 1.45079 22.9574C1.22703 22.9574 1.04395 23.1401 1.04395 23.3583V30.418C1.04395 30.6413 1.22703 30.8241 1.45079 30.8241H8.39265C8.61642 30.8241 8.7995 30.6413 8.7995 30.418C8.7995 30.1998 8.61642 30.0171 8.39265 30.0171Z" stroke="white"/>
</svg>
