<svg width="32" height="32" viewBox="0 0 32 32" fill="none" xmlns="http://www.w3.org/2000/svg">
<path d="M30.5814 1H7.21189C6.9845 1 6.79845 1.18734 6.79845 1.41631V6.93235H1.41344C1.18605 6.93235 1 7.11969 1 7.34866V30.5837C1 30.8127 1.18605 31 1.41344 31H24.7829C25.0103 31 25.1964 30.8127 25.1964 30.5837V25.0676H30.5866C30.814 25.0676 31 24.8803 31 24.6513V1.41631C30.9897 1.18734 30.8088 1 30.5814 1ZM24.3695 30.1674H1.82171V7.75976H24.3643V30.1674H24.3695ZM30.168 24.235H25.186V7.34345C25.186 7.11448 25 6.92715 24.7726 6.92715H7.62532V1.82741H30.168V24.235Z" fill="white" stroke="white"/>
<path d="M19.8046 13.6126L9.82197 23.5953L6.77201 20.2174C6.58464 20.0873 6.3244 20.1342 6.19428 20.3215C6.06417 20.5089 6.11101 20.7691 6.29838 20.8993L9.6346 24.4749C9.70747 24.5217 9.79074 24.5478 9.86881 24.5478C9.97291 24.5478 10.0822 24.5061 10.1603 24.4281L20.3875 14.2008C20.5489 14.0394 20.5489 13.7792 20.3875 13.6179C20.2262 13.4513 19.966 13.4513 19.8046 13.6126Z" fill="white" stroke="white"/>
</svg>
