<svg width="21" height="32" viewBox="0 0 21 32" fill="none" xmlns="http://www.w3.org/2000/svg">
<path d="M10.2799 15.7201C6.22059 15.7201 2.9198 12.4193 2.9198 8.36006C2.9198 4.30078 6.22059 1 10.2799 1C14.3392 1 17.6399 4.30078 17.6399 8.36006C17.6399 12.4193 14.3392 15.7201 10.2799 15.7201ZM10.2799 1.8265C6.68092 1.8265 3.75153 4.75588 3.75153 8.35484C3.75153 11.9538 6.68092 14.8832 10.2799 14.8832C13.8788 14.8832 16.8082 11.9538 16.8082 8.35484C16.8082 4.75588 13.8788 1.8265 10.2799 1.8265Z" fill="white" stroke="white"/>
<path d="M19.4917 31H1.41848C1.18832 31 1 30.8117 1 30.5815V24.3357C1 19.1256 5.24237 14.8832 10.4525 14.8832C15.6626 14.8832 19.905 19.1256 19.905 24.3357V30.5815C19.9102 30.8117 19.7219 31 19.4917 31ZM1.83697 30.1683H19.0785V24.3409C19.0785 19.5859 15.2127 15.7201 10.4577 15.7201C5.7027 15.7201 1.83697 19.5859 1.83697 24.3409V30.1683Z" fill="white" stroke="white"/>
</svg>
