<svg width="31" height="32" viewBox="0 0 31 32" fill="none" xmlns="http://www.w3.org/2000/svg">
<path d="M7.63879 31C7.58225 31 7.5257 30.9896 7.4743 30.9636C7.32522 30.8959 7.22755 30.7502 7.22755 30.5836V24.1766H0.411241C0.185058 24.1766 0 23.9892 0 23.7602V1.41638C0 1.18737 0.185058 1 0.411241 1H29.5888C29.8149 1 30 1.18737 30 1.41638V23.7602C30 23.9892 29.8149 24.1766 29.5888 24.1766H15.1542L7.91638 30.8907C7.83927 30.9636 7.7416 31 7.63879 31ZM0.817341 23.3439H7.63879C7.86498 23.3439 8.05003 23.5312 8.05003 23.7602V29.6468L14.7224 23.4584C14.7995 23.3907 14.8972 23.3491 15 23.3491H29.1775V1.82755H0.817341V23.3439Z" fill="white"/>
<path d="M7.4743 30.9636L7.70013 30.5175L7.69064 30.5127L7.68095 30.5083L7.4743 30.9636ZM7.22755 24.1766H7.72755V23.6766H7.22755V24.1766ZM15.1542 24.1766V23.6766H14.958L14.8142 23.81L15.1542 24.1766ZM7.91638 30.8907L7.57632 30.5241L7.57296 30.5273L7.91638 30.8907ZM0.817341 23.3439H0.317341V23.8439H0.817341V23.3439ZM8.05003 29.6468H7.55003V30.7925L8.39004 30.0134L8.05003 29.6468ZM14.7224 23.4584L14.3925 23.0824L14.3824 23.0918L14.7224 23.4584ZM29.1775 23.3491V23.8491H29.6775V23.3491H29.1775ZM29.1775 1.82755H29.6775V1.32755H29.1775V1.82755ZM0.817341 1.82755V1.32755H0.317341V1.82755H0.817341ZM7.63879 30.5C7.64231 30.5 7.66677 30.5006 7.70013 30.5175L7.24846 31.4097C7.38463 31.4786 7.52219 31.5 7.63879 31.5V30.5ZM7.68095 30.5083C7.70495 30.5192 7.72755 30.548 7.72755 30.5836H6.72755C6.72755 30.9524 6.9455 31.2726 7.26765 31.4189L7.68095 30.5083ZM7.72755 30.5836V24.1766H6.72755V30.5836H7.72755ZM7.22755 23.6766H0.411241V24.6766H7.22755V23.6766ZM0.411241 23.6766C0.467032 23.6766 0.5 23.719 0.5 23.7602H-0.5C-0.5 24.2595 -0.0969155 24.6766 0.411241 24.6766V23.6766ZM0.5 23.7602V1.41638H-0.5V23.7602H0.5ZM0.5 1.41638C0.5 1.45764 0.467034 1.5 0.411241 1.5V0.5C-0.0969177 0.5 -0.5 0.917097 -0.5 1.41638H0.5ZM0.411241 1.5H29.5888V0.5H0.411241V1.5ZM29.5888 1.5C29.533 1.5 29.5 1.45764 29.5 1.41638H30.5C30.5 0.917099 30.0969 0.5 29.5888 0.5V1.5ZM29.5 1.41638V23.7602H30.5V1.41638H29.5ZM29.5 23.7602C29.5 23.719 29.533 23.6766 29.5888 23.6766V24.6766C30.0969 24.6766 30.5 24.2595 30.5 23.7602H29.5ZM29.5888 23.6766H15.1542V24.6766H29.5888V23.6766ZM14.8142 23.81L7.57634 30.5241L8.25642 31.2573L15.4943 24.5432L14.8142 23.81ZM7.57296 30.5273C7.58136 30.5194 7.59281 30.5118 7.60622 30.5066C7.61937 30.5015 7.63085 30.5 7.63879 30.5V31.5C7.86342 31.5 8.08566 31.4187 8.2598 31.2541L7.57296 30.5273ZM0.817341 23.8439H7.63879V22.8439H0.817341V23.8439ZM7.63879 23.8439C7.583 23.8439 7.55003 23.8015 7.55003 23.7602H8.55003C8.55003 23.261 8.14695 22.8439 7.63879 22.8439V23.8439ZM7.55003 23.7602V29.6468H8.55003V23.7602H7.55003ZM8.39004 30.0134L15.0624 23.825L14.3824 23.0918L7.71003 29.2802L8.39004 30.0134ZM15.0522 23.8342C15.0504 23.8358 15.034 23.8491 15 23.8491V22.8491C14.7604 22.8491 14.5487 22.9456 14.3926 23.0825L15.0522 23.8342ZM15 23.8491H29.1775V22.8491H15V23.8491ZM29.6775 23.3491V1.82755H28.6775V23.3491H29.6775ZM29.1775 1.32755H0.817341V2.32755H29.1775V1.32755ZM0.317341 1.82755V23.3439H1.31734V1.82755H0.317341Z" fill="white"/>
</svg>
