<svg width="21" height="21" viewBox="0 0 21 21" fill="none" xmlns="http://www.w3.org/2000/svg">
<path fill-rule="evenodd" clip-rule="evenodd" d="M20.0054 6.75596C19.9942 5.9162 19.8368 5.08479 19.5401 4.29892C19.2828 3.63604 18.8898 3.03402 18.3863 2.53134C17.8828 2.02866 17.2798 1.63636 16.6158 1.37951C15.8388 1.0883 15.0178 0.930837 14.188 0.913827C13.1196 0.86615 12.7809 0.852844 10.0687 0.852844C7.35659 0.852844 7.00897 0.852844 5.94833 0.913827C5.11887 0.930962 4.29833 1.08842 3.52163 1.37951C2.85754 1.63618 2.25443 2.02842 1.75089 2.53112C1.24735 3.03383 0.854464 3.63593 0.597368 4.29892C0.305088 5.0741 0.147704 5.89346 0.132019 6.72159C0.0842622 7.78934 0.0698242 8.12752 0.0698242 10.8351C0.0698242 13.5428 0.0698242 13.8887 0.132019 14.9487C0.148678 15.7781 0.305275 16.5963 0.597368 17.3736C0.854895 18.0364 1.24807 18.6382 1.75178 19.1407C2.25549 19.6432 2.85866 20.0353 3.52274 20.2919C4.29732 20.5948 5.118 20.7635 5.94944 20.7908C6.97337 20.8365 7.32749 20.8516 9.73565 20.8528V12.9332H7.62158V10.0427H9.73565V7.57376C9.73565 5.63366 10.9844 3.85201 13.8619 3.85201C15.027 3.85201 15.8885 3.96417 15.8885 3.96417L15.8206 6.66347C15.8206 6.66347 14.942 6.65488 13.9832 6.65488C12.9456 6.65488 12.7793 7.13506 12.7793 7.93203V10.0427H15.9031L15.7672 12.9332H12.7793V20.8447C13.3206 20.8368 13.6695 20.8213 14.1902 20.7908C15.02 20.7745 15.841 20.6174 16.618 20.3263C17.2818 20.0691 17.8847 19.6767 18.3882 19.1741C18.8917 18.6714 19.2847 18.0696 19.5423 17.4069C19.8344 16.6307 19.991 15.8124 20.0076 14.982C20.0554 13.9153 20.0698 13.5771 20.0698 10.8684L20.0698 10.8314V10.8313C20.0676 8.15761 20.0673 7.81219 20.0054 6.75596Z" fill="#FFCF53"/>
</svg>
