<svg width="22" height="18" viewBox="0 0 22 18" fill="none" xmlns="http://www.w3.org/2000/svg">
<path d="M19.5491 14.9954H17.4241V5.95676L11.0491 9.83046L4.67407 5.95676V14.9954H2.54907V2.59956H3.82407L11.0491 6.98975L18.2741 2.59956H19.5491V14.9954ZM19.5491 0.533585H2.54907C1.3697 0.533585 0.424072 1.45294 0.424072 2.59956V14.9954C0.424072 15.5433 0.647955 16.0688 1.04647 16.4563C1.44499 16.8437 1.98549 17.0614 2.54907 17.0614H19.5491C20.1127 17.0614 20.6532 16.8437 21.0517 16.4563C21.4502 16.0688 21.6741 15.5433 21.6741 14.9954V2.59956C21.6741 2.05163 21.4502 1.52614 21.0517 1.13869C20.6532 0.751249 20.1127 0.533585 19.5491 0.533585Z" fill="#FFCF53"/>
</svg>
