<svg width="22" height="21" viewBox="0 0 22 21" fill="none" xmlns="http://www.w3.org/2000/svg">
<path d="M21.1949 8.07865C21.3442 8.18749 21.4188 8.35076 21.4188 8.56845V19.6161C21.4188 19.7975 21.3628 19.9426 21.2509 20.0514C21.1389 20.1603 20.9803 20.2238 20.7751 20.2419H14.3098C14.1232 20.2419 13.9646 20.1784 13.834 20.0514C13.7034 19.9245 13.638 19.7793 13.638 19.6161V12.6773C13.638 12.4959 13.5821 12.3417 13.4701 12.2147C13.3582 12.0877 13.1996 12.0333 12.9943 12.0514H9.10393C8.91734 12.0514 8.76807 12.1059 8.65612 12.2147C8.54417 12.3235 8.47886 12.4777 8.4602 12.6773V19.6161C8.4602 19.7975 8.40422 19.9426 8.29227 20.0514C8.18032 20.1603 8.02172 20.2238 7.81647 20.2419H1.32318C1.13659 20.2419 0.987315 20.1784 0.875362 20.0514C0.763408 19.9245 0.698102 19.7793 0.679443 19.6161V8.56845C0.679443 8.35076 0.763408 8.18749 0.931338 8.07865L10.6433 0.405182C10.9232 0.187495 11.1937 0.187495 11.455 0.405182L21.1949 8.07865Z" fill="#FFCF53"/>
</svg>
