<svg width="171" height="67" viewBox="0 0 171 67" fill="none" xmlns="http://www.w3.org/2000/svg">
<g clip-path="url(#clip0)">
<path d="M25.7421 47.5404L21.0533 56.6378L24.5941 58.4493L29.283 49.3518L25.7421 47.5404ZM20.2044 4.33952C21.894 3.92087 23.5998 3.7196 25.2975 3.7196C29.0647 3.7196 32.7672 4.73401 36.0737 6.72257C36.2758 6.84333 36.4617 6.96409 36.6557 7.09291L40.4068 5.18486C39.6388 4.59715 38.8385 4.04164 37.9977 3.53443C32.3469 0.145027 25.7098 -0.845227 19.3071 0.732739C12.9044 2.31876 7.50421 6.28782 4.10077 11.9154C0.762008 17.4302 -0.256598 23.8789 1.19855 30.1344L5.8712 32.5577C5.48316 31.6158 5.16788 30.6416 4.91727 29.6353C3.56722 24.2251 4.41605 18.6137 7.3021 13.8315C10.1801 9.05732 14.7638 5.68401 20.2044 4.33952ZM43.883 8.44545L42.7269 13.0505C43.9962 14.9586 44.9582 17.0921 45.5483 19.3705L48.9518 17.6717C47.9412 14.226 46.2031 11.0942 43.883 8.44545ZM42.0075 6.83528L32.7753 11.537C22.2093 8.16367 15.9522 11.545 12.5326 15.031C5.27298 22.4539 9.22614 33.1616 9.40399 33.6205L9.66268 34.3048L34.756 47.3633L25.8229 64.6806L29.3638 66.4921L40.0592 45.745L38.2241 44.8111L31.0615 41.0836L29.7761 37.1628L34.3356 37.3882L42.0075 6.83528ZM28.4907 33.2421L26.4535 27.0429L27.0356 21.1658L22.0072 25.9238L26.1463 38.5234L12.7993 31.5755C12.1688 29.426 10.6247 22.4781 15.2973 17.7039C19.2424 13.6705 24.966 12.8976 32.2903 15.4255L33.0664 15.6912L36.1788 14.1052L31.3525 33.387L28.4907 33.2421Z" fill="#FFCF53"/>
<path d="M54.0284 26.6081L51.1424 39.4089H48.4746L45.6047 26.6081H48.418L49.8085 35.6492L51.2151 26.6081H54.0284Z" fill="white"/>
<path d="M63.7941 39.4089H61.1183L60.706 37.4123H57.7472L57.3349 39.4089H54.659L57.9654 26.6081H60.4958L63.7941 39.4089ZM60.2209 35.1098L59.2266 30.3598L58.2322 35.1098H60.2209Z" fill="white"/>
<path d="M72.6382 35.7538C72.6382 37.1063 72.3634 38.0563 71.8056 38.5958C71.1427 39.2318 70.213 39.5458 69.0085 39.5458C67.7797 39.5458 66.85 39.2318 66.2275 38.6119C65.6616 38.0483 65.3787 37.0983 65.3787 35.7699H67.9413C67.9413 36.3415 68.0303 36.736 68.2081 36.9373C68.386 37.1386 68.6527 37.2432 69.0004 37.2432C69.3722 37.2432 69.6471 37.1386 69.8088 36.9212C69.9786 36.7199 70.0594 36.3576 70.0594 35.8424C70.0594 35.2466 69.9866 34.836 69.8492 34.6267C69.7118 34.4174 69.4046 34.2161 68.9357 34.0229L67.3108 33.3547C66.6398 33.0809 66.1628 32.7106 65.888 32.2597C65.6131 31.8008 65.4757 31.1004 65.4757 30.1424C65.4757 28.9106 65.8637 27.9606 66.6317 27.3004C67.2704 26.761 68.0545 26.4953 68.9923 26.4953C70.0998 26.4953 70.9406 26.761 71.5226 27.3004C72.1855 27.9123 72.517 28.9025 72.517 30.2712H69.9543C69.9543 29.6996 69.8815 29.3131 69.736 29.1199C69.5824 28.9025 69.3318 28.7979 68.9923 28.7979C68.6689 28.7979 68.4183 28.9106 68.2485 29.136C68.103 29.3292 68.0303 29.6352 68.0303 30.0538C68.0303 30.4644 68.0869 30.7462 68.1919 30.9152C68.297 31.0843 68.5396 31.2453 68.9114 31.3983L70.5202 32.0424C71.3367 32.3805 71.8945 32.7911 72.1774 33.2902C72.4927 33.7974 72.6382 34.6186 72.6382 35.7538Z" fill="white"/>
<path d="M77.7151 39.4089H75.1524V26.6081H77.7151V39.4089Z" fill="white"/>
<path d="M86.5268 39.4089H80.6011V26.6081H83.1638V37.1064H86.5187V39.4089H86.5268Z" fill="white"/>
<path d="M94.5544 26.6081L91.9351 34.5945V39.417H89.3724V34.5945L86.7532 26.6081H89.5665L90.6497 31.2454L91.733 26.6081H94.5544Z" fill="white"/>
<path d="M104.053 39.4089H101.377L100.965 37.4123H98.0063L97.594 39.4089H94.9182L98.2246 26.6081H100.755L104.053 39.4089ZM100.48 35.1098L99.4857 30.3598L98.4914 35.1098H100.48Z" fill="white"/>
<path d="M116.293 28.9106H114.126V39.4089H111.564V28.9106H109.397V26.6081H116.293V28.9106Z" fill="white"/>
<path d="M125.274 29.6674C125.387 30.4402 125.444 31.5513 125.444 33.0004C125.444 34.4496 125.387 35.5606 125.274 36.3335C125.161 37.1063 124.902 37.7424 124.49 38.2496C123.795 39.111 122.849 39.5457 121.677 39.5457C120.505 39.5457 119.559 39.111 118.864 38.2496C118.451 37.7424 118.193 37.1063 118.079 36.3335C117.966 35.5606 117.91 34.4496 117.91 33.0004C117.91 31.5513 117.966 30.4402 118.079 29.6674C118.193 28.8945 118.451 28.2585 118.864 27.7513C119.559 26.8898 120.497 26.4551 121.677 26.4551C122.857 26.4551 123.795 26.8898 124.49 27.7513C124.902 28.2585 125.161 28.8945 125.274 29.6674ZM122.881 33.0085C122.881 30.9555 122.768 29.7157 122.542 29.2648C122.372 28.9267 122.081 28.7576 121.677 28.7576C121.273 28.7576 120.982 28.9267 120.812 29.2648C120.585 29.7076 120.472 30.9555 120.472 33.0085C120.472 35.0614 120.585 36.3013 120.812 36.7441C120.982 37.0822 121.273 37.2513 121.677 37.2513C122.081 37.2513 122.372 37.0822 122.542 36.7441C122.768 36.3013 122.881 35.0534 122.881 33.0085Z" fill="white"/>
<path d="M134.385 27.6386C134.927 28.3309 135.194 29.3454 135.194 30.6898C135.194 32.0343 134.927 33.0487 134.385 33.7411C133.843 34.4335 132.914 34.7716 131.588 34.7716H130.521V39.4089H127.958V26.6081H131.588C132.906 26.6081 133.843 26.9462 134.385 27.6386ZM132.607 31.3259C132.623 31.1648 132.631 30.9555 132.631 30.6898C132.631 30.4242 132.623 30.2148 132.607 30.0538C132.59 29.8928 132.55 29.7157 132.477 29.5144C132.413 29.3131 132.299 29.1682 132.138 29.0636C131.976 28.9589 131.766 28.9106 131.515 28.9106H130.521V32.4691H131.515C131.766 32.4691 131.976 32.4208 132.138 32.3161C132.299 32.2115 132.413 32.0665 132.477 31.8653C132.542 31.664 132.59 31.4869 132.607 31.3259Z" fill="white"/>
<path d="M144.676 35.7538C144.612 37.0017 144.232 37.9597 143.52 38.628C142.873 39.2398 142.049 39.5457 141.046 39.5457C139.866 39.5457 138.928 39.111 138.233 38.2496C137.821 37.7424 137.562 37.1063 137.449 36.3335C137.336 35.5606 137.279 34.4496 137.279 33.0004C137.279 31.5513 137.336 30.4402 137.449 29.6674C137.562 28.8945 137.821 28.2585 138.233 27.7513C138.928 26.8898 139.866 26.4551 141.046 26.4551C142.049 26.4551 142.873 26.761 143.52 27.3729C144.232 28.0411 144.612 28.9991 144.676 30.2309H142.114C142.089 29.772 142.025 29.45 141.911 29.2407C141.758 28.9186 141.467 28.7576 141.046 28.7576C140.634 28.7576 140.351 28.9267 140.181 29.2648C139.955 29.7076 139.842 30.9555 139.842 33.0085C139.842 35.0614 139.955 36.3013 140.181 36.7441C140.351 37.0822 140.642 37.2513 141.046 37.2513C141.467 37.2513 141.758 37.0822 141.911 36.7441C142.017 36.5428 142.089 36.2127 142.114 35.7538H144.676Z" fill="white"/>
<path d="M154.369 39.4089H151.806V34.047H149.672V39.4089H147.11V26.6081H149.672V31.7526H151.806V26.6081H154.369V39.4089Z" fill="white"/>
<path d="M159.818 39.4089H157.255V26.6081H159.818V39.4089Z" fill="white"/>
<path d="M170.958 39.4089H168.282L167.87 37.4123H164.911L164.499 39.4089H161.823L165.129 26.6081H167.66L170.958 39.4089ZM167.385 35.1098L166.39 30.3598L165.396 35.1098H167.385Z" fill="white"/>
<path d="M51.9669 53.6586H48.4099V45.9781H49.9459V52.2819H51.9589V53.6586H51.9669Z" fill="#C6C6C6"/>
<path d="M59.0729 53.6589H57.4723L57.2216 52.4593H55.4431L55.1925 53.6589H53.5919L55.5725 45.9784H57.0923L59.0729 53.6589ZM56.9306 51.0826L56.3324 48.2326L55.7342 51.0826H56.9306Z" fill="#C6C6C6"/>
<path d="M68.588 45.9784L66.9712 53.6589H65.3705L64.3762 48.2246L63.3818 53.6589H61.7811L60.1643 45.9784H61.8539L62.5815 51.4047L63.5354 45.9784H65.225L66.1789 51.4047L66.9065 45.9784H68.588Z" fill="#C6C6C6"/>
<path d="M76.7934 47.3551H74.7804V49.0941H76.5104V50.4708H74.7804V53.6508H73.2444V45.9703H76.8015V47.3551H76.7934Z" fill="#C6C6C6"/>
<path d="M80.2696 53.6589H78.7336V45.9784H80.2696V53.6589Z" fill="#C6C6C6"/>
<path d="M87.1331 53.6589H85.5324L84.5866 50.672H84.0773V53.6589H82.5413V45.9784H84.7402C85.5405 45.9784 86.0983 46.1716 86.4136 46.5581C86.7289 46.9445 86.8825 47.5322 86.8825 48.3131C86.8825 48.7881 86.8259 49.1907 86.7046 49.5127C86.5834 49.8428 86.3489 50.1085 86.0094 50.3259L87.1331 53.6589ZM85.3465 48.3212C85.3465 48.136 85.3384 47.9831 85.3222 47.8623C85.3061 47.7415 85.2495 47.6288 85.1525 47.5242C85.0554 47.4195 84.918 47.3631 84.7321 47.3631H84.0853V49.2953H84.7321C84.8695 49.2953 84.9827 49.2712 85.0716 49.2148C85.1605 49.1585 85.2252 49.078 85.2575 48.9733C85.2899 48.8686 85.3141 48.764 85.3303 48.6674C85.3465 48.5708 85.3465 48.4581 85.3465 48.3212Z" fill="#C6C6C6"/>
<path d="M94.619 53.6589H93.083V49.6576L92.2423 52.2903H91.45L90.6254 49.6657V53.6589H89.0894V45.9784H90.4395L91.8462 49.7462L93.2528 45.9784H94.619V53.6589Z" fill="#C6C6C6"/>
</g>
<defs>
<clipPath id="clip0">
</clipPath>
</defs>
</svg>
